<?xml version="1.0" encoding="iso-8859-1"?>
<!-- Generator: Adobe Illustrator 9.0, SVG Export Plug-In  -->
<!DOCTYPE svg PUBLIC "-//W3C//DTD SVG 20000303 Stylable//EN"   "http://www.w3.org/TR/2000/03/WD-SVG-20000303/DTD/svg-20000303-stylable.dtd" [
	<!ENTITY st0 "fill:none;stroke:#000000;stroke-width:1.5422;">
	<!ENTITY st1 "fill:none;stroke:#000000;stroke-width:6.1688;stroke-linecap:round;stroke-linejoin:round;">
	<!ENTITY st2 "fill:none;stroke:#000000;stroke-width:6.1688;stroke-linejoin:round;">
	<!ENTITY st3 "fill:#FFFFFF;">
	<!ENTITY st4 "fill:none;stroke:#FFFFFF;stroke-width:12.3375;stroke-linejoin:round;">
	<!ENTITY st5 "fill:none;stroke:#FFFFFF;stroke-width:12.3375;stroke-linecap:round;stroke-linejoin:round;">
	<!ENTITY st6 "fill:none;stroke:none;">
	<!ENTITY st7 "fill-rule:nonzero;clip-rule:nonzero;stroke:#000000;stroke-miterlimit:4;">
	<!ENTITY st8 "stroke:none;">
	<!ENTITY st9 "fill:#FFFFFF;stroke:#000000;stroke-width:1.5422;">
]>
<svg  width="48pt" height="48pt" viewBox="0 0 48 48" xml:space="preserve">
	<g id="Layer_x0020_4" style="&st7;">
		<g style="&st8;">
			<path style="&st5;" d="M37.3,37H11.7l-3.5-3.5V9.4h29.2V37z"/>
			<path style="&st1;" d="M37.3,37H11.7l-3.5-3.5V9.4h29.2V37z"/>
			<path d="M37.3,37H11.7l-3.5-3.5V9.4h29.2V37z"/>
			<path style="&st9;" d="M31,37.2c0,1-0.8,1.9-1.9,1.9H13.4c-1,0-1.9-0.8-1.9-1.9v-10c0-1,0.8-1.9,1.9-1.9h15.7c1,0,1.9,0.8,1.9,1.9v10z"/>
			<path d="M20.6,36.4h-5.7V28h5.7v8.4z"/>
			<path style="&st9;" d="M35.6,22.9H10.2V7.8h25.4v15.2z"/>
			<path style="&st4;" d="M39.9,33.6l-17-17l-9.6-3.8l3.4,10.8l16.5,16.6l6.7-6.7z"/>
			<path style="&st2;" d="M39.9,33.6l-17-17l-9.6-3.8l3.4,10.8l16.5,16.6l6.7-6.7z"/>
			<path d="M39.9,33.6l-17-17l-9.6-3.8l3.4,10.8l16.5,16.6l6.7-6.7z"/>
			<path d="M17.4,14.1l-3.1,3.1l-1.4-4.7l4.5,1.7z"/>
			<path style="&st0;" d="M16.2,23.4l3.8-0.3l3-3l0.4-3.5"/>
			<path style="&st3;" d="M17.2,14.3l-2.6,2.6l2,6.5l3.3-0.3l3-3l0.4-3l-6.2-2.7z"/>
		</g>
	</g>
	<g id="crop_x0020_marks" style="&st7;">
		<path style="&st6;" d="M48,48H0V0h48v48z"/>
	</g>
</svg>
