<?xml version="1.0" encoding="iso-8859-1"?>
<!-- Generator: Adobe Illustrator 9.0, SVG Export Plug-In  -->
<!DOCTYPE svg PUBLIC "-//W3C//DTD SVG 20000303 Stylable//EN"   "http://www.w3.org/TR/2000/03/WD-SVG-20000303/DTD/svg-20000303-stylable.dtd" [
	<!ENTITY st0 "stroke:#000000;stroke-width:1.6039;stroke-linejoin:round;">
	<!ENTITY st1 "fill:none;stroke:#FFFFFF;stroke-width:5.347;">
	<!ENTITY st2 "fill:#FFFFFF;">
	<!ENTITY st3 "fill:#FFFFFF;stroke:#000000;stroke-width:1.6039;stroke-linejoin:round;">
	<!ENTITY st4 "fill:none;stroke:#000000;stroke-width:4.8118;stroke-linejoin:round;">
	<!ENTITY st5 "fill:none;stroke:none;">
	<!ENTITY st6 "fill-rule:nonzero;clip-rule:nonzero;stroke:#000000;stroke-miterlimit:4;">
	<!ENTITY st7 "fill:none;stroke:#FFFFFF;stroke-width:9.6235;stroke-linejoin:round;">
	<!ENTITY st8 "stroke:none;">
	<!ENTITY st9 "fill:none;stroke:#000000;stroke-width:0.9048;">
]>
<svg  width="48pt" height="48pt" viewBox="0 0 48 48" xml:space="preserve">
	<g id="Layer_x0020_4" style="&st6;">
		<g style="&st8;">
			<path style="&st7;" d="M37,24.1L24.6,36.5l-2.2,5.6l6.4-2L40.9,28L37,24.1z"/>
			<path style="&st1;" d="M7.2,30.9c0.8,0.8,2.1,0.8,2.9,0l6-6c0.6-0.6,0.7-1.4,0.5-2.1c1.7,1.4,3.8,2.2,6.1,2.2c5.3,0,9.6-4.3,9.6-9.6c0-5.3-4.3-9.6-9.6-9.6c-5.3,0-9.6,4.3-9.6,9.6c0,2.3,0.8,4.5,2.2,6.2c-0.7-0.2-1.5-0.1-2.1,0.5l-6,6c-0.8,0.8-0.8,2.1,0,2.9z
				 M15.6,15.3c0-3.9,3.2-7.1,7.1-7.1c3.9,0,7.1,3.2,7.1,7.1s-3.2,7.1-7.1,7.1c-3.9,0-7.1-3.2-7.1-7.1z"/>
			<g>
				<path style="&st0;" d="M7.1,30.9c0.8,0.8,2.1,0.8,2.9,0l6-6c0.6-0.6,0.7-1.4,0.5-2.1c1.7,1.4,3.8,2.2,6.1,2.2c5.3,0,9.6-4.3,9.6-9.6c0-5.3-4.3-9.6-9.6-9.6c-5.3,0-9.6,4.3-9.6,9.6c0,2.3,0.8,4.5,2.2,6.2c-0.7-0.2-1.5-0.1-2.1,0.5l-6,6c-0.8,0.8-0.8,2.1,0,2.9z
					 M15.6,15.4c0-3.9,3.2-7.1,7.1-7.1c3.9,0,7.1,3.2,7.1,7.1c0,3.9-3.2,7.1-7.1,7.1c-3.9,0-7.1-3.2-7.1-7.1z"/>
				<path style="&st3;" d="M15.6,15.4c0,3.9,3.2,7.1,7.1,7.1c3.9,0,7.1-3.2,7.1-7.1c0-3.9-3.2-7.1-7.1-7.1c-3.9,0-7.1,3.2-7.1,7.1z"/>
			</g>
			<path style="&st4;" d="M37,24.1L24.6,36.5l-2.2,5.6l6.4-2L40.9,28L37,24.1z"/>
			<path d="M37,24.1L24.6,36.5l-2.2,5.6l6.4-2L40.9,28L37,24.1z"/>
			<path d="M37,24.1L24.6,36.5l-2.2,5.6l6.4-2L40.9,28L37,24.1z"/>
			<path d="M23.1,39.7l1.8,1.8l-2.8,0.8l1-2.6z"/>
			<path style="&st9;" d="M28.6,40.4l-0.2-2.2l-1.8-1.8l-2-0.3"/>
			<path style="&st2;" d="M23.3,39.8l1.5,1.5l3.8-1.2l-0.2-1.9l-1.8-1.8l-1.8-0.2l-1.6,3.6z"/>
		</g>
	</g>
	<g id="crop_x0020_marks" style="&st6;">
		<path style="&st5;" d="M48,48H0V0h48v48z"/>
	</g>
</svg>
