<?xml version="1.0" encoding="iso-8859-1"?>
<!-- Generator: Adobe Illustrator 9.0, SVG Export Plug-In  -->
<!DOCTYPE svg PUBLIC "-//W3C//DTD SVG 20000303 Stylable//EN"   "http://www.w3.org/TR/2000/03/WD-SVG-20000303/DTD/svg-20000303-stylable.dtd" [
	<!ENTITY st0 "fill:none;stroke:#000000;stroke-width:1.7121;stroke-linecap:round;stroke-linejoin:round;">
	<!ENTITY st1 "stroke:#FFFFFF;stroke-width:6.8486;stroke-linejoin:round;">
	<!ENTITY st2 "fill:none;stroke:none;">
	<!ENTITY st3 "fill-rule:nonzero;clip-rule:nonzero;stroke:#000000;stroke-miterlimit:4;">
	<!ENTITY st4 "stroke:none;">
	<!ENTITY st5 "fill:#FFFFFF;stroke:#000000;stroke-width:3.0273;stroke-linecap:round;stroke-linejoin:round;">
]>
<svg  width="48pt" height="48pt" viewBox="0 0 48 48" xml:space="preserve">
	<g id="Layer_x0020_4" style="&st3;">
		<g style="&st4;">
			<path style="&st1;" d="M42.8,29.9c-0.2-0.7-0.9-1.2-1.7-1.1c0,0-1.8,0.3-3.7,0.3c-3.2,0-3.8-0.7-3.8-0.8c0,0,0,0,0-0.1l-6.2-8.1l1.9-1.1c0-0.1-0.1-0.1-0.1-0.2l-0.9-1.6c-1-1.7-3.2-2.2-4.9-1.2l-5.6,3.4c0,0,0-0.1,0-0.1L10.3,7.3c-0.9-1.4-2.7-1.9-4.2-1
				c-1.4,0.9-1.9,2.7-1,4.2l7.4,12.2c0,0,0,0,0,0.1l-5.6,3.4c-1.7,1-2.2,3.2-1.2,4.9l0.9,1.6c0,0.1,0.1,0.1,0.1,0.2l2-1.2C10.6,34,15,40,15,40c1.3,2.1,4.2,1.8,5.7,1.2c0,0,0.1,0,0.1,0L42,31.8c0.7-0.3,1-1.1,0.8-1.8z"/>
			<path style="&st5;" d="M25.3,20l-16,9.7l7,9.5c1,1.8,3.9,0.7,3.9,0.7l21.2-9.5c0,0-7.4,1.2-9-1.1L25.3,20z"/>
			<path d="M17.7,19.6c0.9,1.4,0.4,3.3-1,4.2c-1.4,0.9-3.3,0.4-4.2-1L5.2,10.5c-0.9-1.4-0.4-3.3,1-4.2c1.4-0.9,3.3-0.4,4.2,1l7.4,12.2z"/>
			<path d="M30.5,20.9l-2.2-3.4c-1-1.7-3.2-2.2-4.9-1.2L7,26.2c-1.7,1-2.2,3.2-1.2,4.9l2.2,3.4l22.6-13.7z"/>
			<path style="&st0;" d="M32.3,33.6c0,0-3.5,1.8-5.5-1.3"/>
			<path style="&st0;" d="M21.7,34.9c2.2,3.3,4,2,4,2"/>
		</g>
	</g>
	<g id="crop_x0020_marks" style="&st3;">
		<path style="&st2;" d="M48,48H0V0h48v48z"/>
	</g>
</svg>
