<?xml version="1.0" encoding="iso-8859-1"?>
<!-- Generator: Adobe Illustrator 9.0, SVG Export Plug-In  -->
<!DOCTYPE svg PUBLIC "-//W3C//DTD SVG 20000303 Stylable//EN"   "http://www.w3.org/TR/2000/03/WD-SVG-20000303/DTD/svg-20000303-stylable.dtd" [
	<!ENTITY st0 "fill:#FFFFFF;">
	<!ENTITY st1 "fill:none;stroke:#FFFFFF;stroke-width:7.0064;stroke-linejoin:round;">
	<!ENTITY st2 "fill:none;stroke:none;">
	<!ENTITY st3 "fill-rule:nonzero;clip-rule:nonzero;stroke:#000000;stroke-miterlimit:4;">
	<!ENTITY st4 "stroke:none;">
]>
<svg  width="48pt" height="48pt" viewBox="0 0 48 48" xml:space="preserve">
	<g id="Layer_x0020_4" style="&st3;">
		<g style="&st4;">
			<path style="&st1;" d="M40.7,30.2c0.7-2,1.1-4.1,1.1-6.3c0-2.2-0.4-4.3-1.1-6.2c1.4-1.4,2.2-3.3,2.2-5.3c0-4.2-3.4-7.6-7.6-7.6c-2.1,0-4.1,0.9-5.5,2.3c-1.8-0.6-3.8-1-5.9-1c-2.1,0-4.1,0.4-5.9,1c-1.4-1.4-3.3-2.4-5.5-2.4C8.4,4.8,5,8.2,5,12.4
				c0,2.1,0.9,4,2.3,5.4c-0.7,1.9-1.1,4-1.1,6.2c0,2.2,0.4,4.3,1.1,6.2C5.9,31.6,5,33.5,5,35.6c0,4.2,3.4,7.6,7.6,7.6c2.2,0,4.1-0.9,5.5-2.4c1.8,0.6,3.8,1,5.9,1c2,0,4-0.3,5.8-1c1.4,1.5,3.3,2.4,5.5,2.4c4.2,0,7.6-3.4,7.6-7.6c0-2.1-0.9-4-2.2-5.4z M35.3,7.9
				c2.4,0,4.4,2,4.4,4.4c0,0.8-0.2,1.6-0.6,2.2c-1.5-2.5-3.6-4.5-6.2-6c0.7-0.4,1.5-0.7,2.3-0.7z M8.2,12.4c0-2.4,2-4.4,4.4-4.4c0.9,0,1.7,0.3,2.4,0.7c-2.5,1.5-4.6,3.6-6.2,6.1c-0.4-0.7-0.6-1.5-0.6-2.3z M12.6,40c-2.5,0-4.4-2-4.4-4.4c0-0.9,0.2-1.7,0.7-2.3
				c1.5,2.5,3.7,4.6,6.2,6.1c-0.7,0.4-1.5,0.7-2.4,0.7z M24,28.8c-2.6,0-4.8-2.1-4.8-4.8c0-2.6,2.1-4.8,4.8-4.8c2.6,0,4.8,2.1,4.8,4.8c0,2.6-2.1,4.8-4.8,4.8z M35.3,40c-0.9,0-1.7-0.3-2.4-0.7c2.5-1.5,4.6-3.5,6.2-6c0.4,0.7,0.6,1.4,0.6,2.3c0,2.5-2,4.4-4.4,4.4z"/>
			<path d="M6.3,24c0,9.8,8,17.8,17.8,17.8c9.8,0,17.8-8,17.8-17.8s-8-17.8-17.8-17.8c-9.8,0-17.8,8-17.8,17.8z M19.3,24c0-2.6,2.1-4.8,4.8-4.8c2.6,0,4.8,2.1,4.8,4.8s-2.1,4.8-4.8,4.8c-2.6,0-4.8-2.1-4.8-4.8z"/>
			<path d="M27.8,35.6c0,4.2,3.4,7.6,7.6,7.6s7.6-3.4,7.6-7.6c0-4.2-3.4-7.6-7.6-7.6s-7.6,3.4-7.6,7.6z M31,35.6c0-2.5,2-4.4,4.4-4.4c2.5,0,4.4,2,4.4,4.4c0,2.4-2,4.4-4.4,4.4c-2.4,0-4.4-2-4.4-4.4z"/>
			<path d="M5.1,35.6c0,4.2,3.4,7.6,7.6,7.6c4.2,0,7.6-3.4,7.6-7.6c0-4.2-3.4-7.6-7.6-7.6c-4.2,0-7.6,3.4-7.6,7.6z M8.2,35.6c0-2.5,2-4.4,4.4-4.4s4.4,2,4.4,4.4c0,2.4-2,4.4-4.4,4.4s-4.4-2-4.4-4.4z"/>
			<path d="M5.1,12.4c0,4.2,3.4,7.6,7.6,7.6c4.2,0,7.6-3.4,7.6-7.6c0-4.2-3.4-7.6-7.6-7.6c-4.2,0-7.6,3.4-7.6,7.6z M8.2,12.4c0-2.4,2-4.4,4.4-4.4s4.4,2,4.4,4.4c0,2.4-2,4.4-4.4,4.4s-4.4-2-4.4-4.4z"/>
			<path d="M27.8,12.4c0,4.2,3.4,7.6,7.6,7.6s7.6-3.4,7.6-7.6c0-4.2-3.4-7.6-7.6-7.6s-7.6,3.4-7.6,7.6z M31,12.4C31,9.9,33,8,35.4,8c2.5,0,4.4,2,4.4,4.4c0,2.4-2,4.4-4.4,4.4c-2.4,0-4.4-2-4.4-4.4z"/>
			<path style="&st0;" d="M9.2,24c0,8.2,6.7,14.9,14.9,14.9S38.9,32.2,38.9,24c0-8.2-6.7-14.9-14.9-14.9S9.2,15.8,9.2,24z M16.9,24c0-4,3.2-7.2,7.2-7.2c4,0,7.2,3.2,7.2,7.2c0,4-3.2,7.2-7.2,7.2c-4,0-7.2-3.2-7.2-7.2z"/>
			<path d="M9.2,31.2l9.5-5.3c1,1.8,1.8,2.6,3.4,3.4L17.5,39c-3.1-1.2-7.1-5.1-8.3-7.8z"/>
			<path d="M31.5,39L26,29.4c1.9-1,2.7-1.8,3.5-3.5l10.1,4.7c-1.3,3.1-5.3,7.3-8,8.5z"/>
			<path d="M38.9,16.8l-9.4,5.4c-0.9-1.9-1.8-2.6-3.4-3.4l4.6-9.9c3,1.2,7,5.2,8.2,7.9z"/>
			<path d="M16.6,9l5.5,9.4c-1.9,1-2.7,1.8-3.5,3.4L8.6,17.3c1.3-3.1,5.3-7.1,8-8.3z"/>
		</g>
	</g>
	<g id="crop_x0020_marks" style="&st3;">
		<path style="&st2;" d="M48,48H0V0h48v48z"/>
	</g>
</svg>
