<?xml version="1.0" encoding="iso-8859-1"?>
<!-- Generator: Adobe Illustrator 9.0, SVG Export Plug-In  -->
<!DOCTYPE svg PUBLIC "-//W3C//DTD SVG 20000303 Stylable//EN"   "http://www.w3.org/TR/2000/03/WD-SVG-20000303/DTD/svg-20000303-stylable.dtd" [
	<!ENTITY st0 "fill:none;stroke:none;">
	<!ENTITY st1 "stroke:#FFFFFF;stroke-width:6.8141;stroke-linejoin:round;">
	<!ENTITY st2 "fill-rule:nonzero;clip-rule:nonzero;stroke:#000000;stroke-miterlimit:4;">
	<!ENTITY st3 "stroke:none;">
]>
<svg  width="48pt" height="48pt" viewBox="0 0 48 48" xml:space="preserve">
	<g id="Layer_x0020_3" style="&st2;">
		<g>
			<path style="&st1;" d="M39.6,17.9c-1.3,0-2.5,1.2-3.2,2.9c-1,0.5-2.5,0.1-2.9-1v-7.2h-0.2H14.7h-0.2v7.3c-0.4,1.2-1.8,1.6-2.8,1.1c-0.6-1.9-1.9-3.1-3.3-3.1c-2.1,0-3.8,2.8-3.8,6.2c0,3.4,1.7,6.2,3.8,6.2c1.3,0,2.5-1.2,3.2-2.9c1-0.5,2.5-0.1,2.9,1v7.2h0.2h18.7
				h0.2v-7.3c0.4-1.2,1.8-1.6,2.8-1.1c0.6,1.9,1.9,3.1,3.3,3.1c2.1,0,3.8-2.8,3.8-6.2c0-3.4-1.7-6.2-3.8-6.2z"/>
			<path style="&st3;" d="M39.6,17.9c-1.3,0-2.5,1.2-3.2,2.9c-1,0.5-2.5,0.1-2.9-1v-7.2h-0.2H14.7h-0.2v7.3c-0.4,1.2-1.8,1.6-2.8,1.1c-0.6-1.9-1.9-3.1-3.3-3.1c-2.1,0-3.8,2.8-3.8,6.2c0,3.4,1.7,6.2,3.8,6.2c1.3,0,2.5-1.2,3.2-2.9c1-0.5,2.5-0.1,2.9,1v7.2h0.2h18.7
				h0.2v-7.3c0.4-1.2,1.8-1.6,2.8-1.1c0.6,1.9,1.9,3.1,3.3,3.1c2.1,0,3.8-2.8,3.8-6.2c0-3.4-1.7-6.2-3.8-6.2z"/>
		</g>
	</g>
	<g id="crop_x0020_marks" style="&st2;">
		<path style="&st0;" d="M48,48H0V0h48v48z"/>
	</g>
</svg>
