<?xml version="1.0" encoding="UTF-8" standalone="no"?>
<!-- Created with Inkscape (http://www.inkscape.org/) -->

<svg
   xmlns:dc="http://purl.org/dc/elements/1.1/"
   xmlns:cc="http://creativecommons.org/ns#"
   xmlns:rdf="http://www.w3.org/1999/02/22-rdf-syntax-ns#"
   xmlns:svg="http://www.w3.org/2000/svg"
   xmlns="http://www.w3.org/2000/svg"
   xmlns:xlink="http://www.w3.org/1999/xlink"
   xmlns:sodipodi="http://sodipodi.sourceforge.net/DTD/sodipodi-0.dtd"
   xmlns:inkscape="http://www.inkscape.org/namespaces/inkscape"
   width="400"
   height="100"
   id="svg14171"
   version="1.1"
   inkscape:version="0.48.4 r9939"
   sodipodi:docname="sticker1.svg">
  <defs
     id="defs14173">
    <radialGradient
       fx="0"
       fy="0"
       cx="0"
       cy="0"
       r="1"
       gradientUnits="userSpaceOnUse"
       gradientTransform="matrix(46.8651,0,0,-46.8651,523.927,52.166)"
       spreadMethod="pad"
       id="radialGradient11154">
      <stop
         style="stop-opacity:1;stop-color:#efd642"
         offset="0"
         id="stop11156" />
      <stop
         style="stop-opacity:1;stop-color:#edc124"
         offset="0.87"
         id="stop11158" />
      <stop
         style="stop-opacity:1;stop-color:#edc124"
         offset="0.87"
         id="stop11160" />
      <stop
         style="stop-opacity:1;stop-color:#edc124"
         offset="1"
         id="stop11162" />
    </radialGradient>
    <radialGradient
       r="1"
       fy="0"
       fx="0"
       cy="0"
       cx="0"
       spreadMethod="pad"
       gradientTransform="matrix(5.2181312,0,0,4.8580443,-172.8659,730.31164)"
       gradientUnits="userSpaceOnUse"
       id="radialGradient14169"
       xlink:href="#radialGradient11154"
       inkscape:collect="always" />
  </defs>
  <sodipodi:namedview
     id="base"
     pagecolor="#ffffff"
     bordercolor="#666666"
     borderopacity="1.0"
     inkscape:pageopacity="0.0"
     inkscape:pageshadow="2"
     inkscape:zoom="1.4"
     inkscape:cx="234.73968"
     inkscape:cy="44.215981"
     inkscape:document-units="px"
     inkscape:current-layer="layer1"
     showgrid="false"
     inkscape:window-width="1600"
     inkscape:window-height="876"
     inkscape:window-x="0"
     inkscape:window-y="24"
     inkscape:window-maximized="1"
     fit-margin-top="0"
     fit-margin-left="0"
     fit-margin-right="0"
     fit-margin-bottom="0" />
  <metadata
     id="metadata14176">
    <rdf:RDF>
      <cc:Work
         rdf:about="">
        <dc:format>image/svg+xml</dc:format>
        <dc:type
           rdf:resource="http://purl.org/dc/dcmitype/StillImage" />
        <dc:title />
      </cc:Work>
    </rdf:RDF>
  </metadata>
  <g
     inkscape:label="Layer 1"
     inkscape:groupmode="layer"
     id="layer1"
     transform="translate(-322.80518,-629.81469)">
    <path
       inkscape:connector-curvature="0"
       d="m 384.60536,716.47156 -3.40155,-7.89476 -3.40043,-7.896 -3.27128,2.08377 -3.26794,2.08171 6.66949,5.81305 6.67171,5.81223 0,0 z m 14.78421,-14.1237 -7.17276,-5.26801 -7.17498,-5.26687 -1.72026,3.32117 -1.72026,3.32127 8.89301,1.94767 8.89525,1.94477 0,0 z m -58.39195,-50.52625 3.40155,7.896 3.40043,7.89362 3.26905,-2.07932 3.27016,-2.08575 -6.67059,-5.81108 -6.6706,-5.81347 0,0 z m -13.64071,14.12173 7.17498,5.26925 7.17276,5.26884 1.72137,-3.32117 1.72026,-3.32241 -8.89301,-1.94642 -8.89636,-1.94809 0,0 z m 14.21413,50.10227 3.40155,-7.89393 3.39821,-7.89683 3.27127,2.08368 3.26905,2.08139 -6.6706,5.81347 -6.66948,5.81222 0,0 z m -14.21413,-14.4412 7.17498,-5.26884 7.17276,-5.26801 1.72137,3.32033 1.72026,3.32325 -8.89301,1.94559 -8.89636,1.94768 0,0 z m 57.93655,-50.10187 -3.40266,7.89476 -3.40043,7.89362 -3.27128,-2.08046 -3.26905,-2.08253 6.66948,-5.81233 6.67394,-5.81306 0,0 z m 14.09611,13.91037 -7.17276,5.2676 -7.17498,5.27049 -1.72138,-3.32366 -1.71914,-3.32116 8.89301,-1.94685 8.89525,-1.94642 0,0 z m 4.94811,17.93321 -8.91974,1.84484 -8.91751,1.84443 0,-7.37574 8.91751,1.84319 8.91974,1.84328 0,0 z m -81.5325,-0.31948 8.91974,1.84401 8.91974,1.84639 0,-7.3777 -8.91974,1.84526 -8.91974,1.84204 0,0 z m 40.48121,-37.25982 -1.97858,8.30214 -1.98414,8.30453 7.92321,0 -1.97969,-8.30453 -1.9808,-8.30214 0,0 z m 0,76.33358 -1.97858,-8.30535 -1.98414,-8.30339 7.92321,0 -1.97969,8.30339 -1.9808,8.30535 0,0 z m 0.22825,-18.20614 c -11.9995,0 -21.72759,-9.05648 -21.72759,-20.22586 0,-11.17384 9.72809,-20.23032 21.72759,-20.23032 11.9984,0 21.7276,9.05648 21.7276,20.23032 0,11.16938 -9.7292,20.22586 -21.7276,20.22586 l 0,0"
       style="fill:url(#radialGradient14169);fill-opacity:1;fill-rule:evenodd;stroke:none"
       id="path11164"
       inkscape:transform-center-y="-10" />
    <text
       xml:space="preserve"
       style="font-size:47.97077179px;font-style:normal;font-weight:normal;line-height:125%;letter-spacing:0px;word-spacing:0px;fill:#000000;fill-opacity:1;stroke:none;font-family:Sans"
       x="431.35129"
       y="657.85266"
       id="text3022"
       sodipodi:linespacing="125%"
       transform="scale(0.93929444,1.0646289)"><tspan
         sodipodi:role="line"
         id="tspan3024"
         x="431.35129"
         y="657.85266">PySchool.net</tspan></text>
    <text
       transform="scale(0.93929444,1.0646289)"
       sodipodi:linespacing="125%"
       id="text3053"
       y="667.85266"
       x="561.35132"
       style="font-size:10px;font-style:normal;font-weight:normal;line-height:125%;letter-spacing:0px;word-spacing:0px;fill:#000000;fill-opacity:1;stroke:none;font-family:Sans"
       xml:space="preserve"><tspan
         y="667.85266"
         x="551.35132"
         id="tspan3055"
         sodipodi:role="line">Advancing Python in the Classroom.</tspan></text>
  </g>
</svg>
