<svg fill-opacity="1" xmlns:xlink="http://www.w3.org/1999/xlink" color-rendering="auto" color-interpolation="auto" stroke="black" text-rendering="auto" stroke-linecap="square" stroke-miterlimit="10" stroke-opacity="1" shape-rendering="auto" fill="black" stroke-dasharray="none" font-weight="normal" stroke-width="1" xmlns="http://www.w3.org/2000/svg" font-family="&apos;Dialog&apos;" font-style="normal" stroke-linejoin="miter" font-size="12" stroke-dashoffset="0" image-rendering="auto">
  <defs id="genericDefs" />
  <g>
    <g>
      <path d="M269.1562 333.5625 Q269.1562 334.5469 265.6406 338.0625 L15.6094 338.0625 Q16.1719 338.0625 11.5312 334.9688 L11.5312 74.9531 Q13.6406 72.7031 14.7656 72.7031 L45.4219 72.7031 Q46.125 74.1094 47.9531 76.5 L72.8438 76.5 Q73.6875 75.0938 75.7969 72.7031 L220.9219 72.7031 Q220.6406 73.8281 220.6406 74.5312 Q220.6406 76.6406 226.5469 76.6406 Q228.0938 76.6406 227.8125 72.7031 L248.3438 72.7031 L269.1562 90 L269.1562 94.5 Q268.0312 94.7812 265.6406 96.1875 L265.6406 108.9844 Q267.3281 110.3906 268.5938 110.25 L269.1562 333.5625 ZM215.7188 160.3125 L215.7188 76.6406 L79.1719 76.6406 L79.1719 160.3125 L215.7188 160.3125 ZM258.75 318.2344 L258.75 310.0781 L245.9531 310.0781 L245.9531 318.2344 L258.75 318.2344 ZM236.3906 334.5469 L236.3906 189.1406 L44.2969 189.1406 L44.2969 334.5469 L236.3906 334.5469 ZM195.0469 155.6719 Q194.3438 156.0938 193.2188 157.0781 L158.625 157.0781 Q156.6562 155.1094 156.6562 154.2656 L156.6562 87.4688 L158.2031 86.0625 L195.0469 86.0625 L195.0469 155.6719 ZM232.4531 215.7188 L49.0781 215.7188 L49.0781 213.1875 L232.4531 213.1875 L232.4531 215.7188 ZM232.4531 234.1406 L49.0781 234.1406 L49.0781 231.75 L232.4531 231.75 L232.4531 234.1406 ZM232.4531 251.4375 L49.0781 251.4375 L49.0781 248.9062 L232.4531 248.9062 L232.4531 251.4375 ZM232.4531 270.4219 L49.0781 270.4219 L49.0781 267.8906 L232.4531 267.8906 L232.4531 270.4219 ZM232.4531 288.8438 L49.0781 288.8438 L49.0781 286.0312 L232.4531 286.0312 L232.4531 288.8438 ZM232.4531 307.4062 L49.0781 307.4062 L49.0781 305.0156 L232.4531 305.0156 L232.4531 307.4062 ZM232.4531 328.5 L49.0781 328.5 L49.0781 324.8438 L232.4531 324.8438 L232.4531 328.5 Z" stroke="none" />
    </g>
  </g>
</svg>
