<?xml version="1.0" encoding="iso-8859-1"?>
<!-- Generator: Adobe Illustrator 9.0, SVG Export Plug-In  -->
<!DOCTYPE svg PUBLIC "-//W3C//DTD SVG 20000303 Stylable//EN"   "http://www.w3.org/TR/2000/03/WD-SVG-20000303/DTD/svg-20000303-stylable.dtd" [
	<!ENTITY st0 "fill:#000000;stroke:none;">
	<!ENTITY st1 "fill-rule:nonzero;clip-rule:nonzero;fill:#FFFFFF;stroke:#FFFFFF;stroke-width:7.5901;stroke-linejoin:round;stroke-miterlimit:4;">
	<!ENTITY st2 "fill:none;stroke:none;">
	<!ENTITY st3 "fill-rule:nonzero;clip-rule:nonzero;stroke:#000000;stroke-miterlimit:4;">
]>
<svg  width="48pt" height="48pt" viewBox="0 0 48 48" xml:space="preserve">
	<g id="Layer_x0020_3" style="&st1;">
		<g>
			<path d="M20,41.1c0,0.3,0.3,0.3,0.5,0.2l16.6-16.9c0.5-0.5,0.4-0.7,0-1L20.5,6.7c-0.1-0.1-0.4-0.1-0.4,0.1v10H6.5c-0.3,0-0.5,0.2-0.5,0.4l0,13.3c0,0.3,0.2,0.5,0.5,0.5h13.5L20,41.1z"/>
			<path d="M37.9,41.2c-0.2,0-0.3-0.1-0.3-0.3V7.1c0-0.2,0.1-0.3,0.3-0.3h3.8c0.2,0,0.3,0.1,0.3,0.3v33.7c0,0.2-0.1,0.3-0.3,0.3h-3.8z"/>
			<path style="&st0;" d="M20,41.1c0,0.3,0.3,0.3,0.5,0.2l16.6-16.9c0.5-0.5,0.4-0.7,0-1L20.5,6.7c-0.1-0.1-0.4-0.1-0.4,0.1v10H6.5c-0.3,0-0.5,0.2-0.5,0.4l0,13.3c0,0.3,0.2,0.5,0.5,0.5h13.5L20,41.1z"/>
			<path style="&st0;" d="M37.9,41.2c-0.2,0-0.3-0.1-0.3-0.3V7.1c0-0.2,0.1-0.3,0.3-0.3h3.8c0.2,0,0.3,0.1,0.3,0.3v33.7c0,0.2-0.1,0.3-0.3,0.3h-3.8z"/>
		</g>
	</g>
	<g id="crop_x0020_marks" style="&st3;">
		<path style="&st2;" d="M48,48H0V0h48v48z"/>
	</g>
</svg>
