<?xml version="1.0" encoding="iso-8859-1"?>
<!-- Generator: Adobe Illustrator 9.0, SVG Export Plug-In  -->
<!DOCTYPE svg PUBLIC "-//W3C//DTD SVG 20000303 Stylable//EN"   "http://www.w3.org/TR/2000/03/WD-SVG-20000303/DTD/svg-20000303-stylable.dtd" [
	<!ENTITY st0 "fill:none;stroke:#FFFFFF;stroke-width:7.4578;stroke-linejoin:round;">
	<!ENTITY st1 "fill:none;stroke:none;">
	<!ENTITY st2 "fill-rule:nonzero;clip-rule:nonzero;stroke:#000000;stroke-miterlimit:4;">
	<!ENTITY st3 "stroke:none;">
]>
<svg  width="48pt" height="48pt" viewBox="0 0 48 48" xml:space="preserve">
	<g id="Layer_x0020_4" style="&st2;">
		<g>
			<path style="&st0;" d="M42.8,22.9l-2.4-8.1l-5.6,1.6c-1.1-1.6-2.7-3-4.4-4l0.9-5.5l-9.2-1.2l-0.8,5.3c-0.3,0.1-0.7,0.2-1,0.3c-1.2,0.3-2.3,0.9-3.3,1.5l-4.3-3.3L7,16.4l4.5,3.5c-0.4,1.1-0.6,2.3-0.6,3.6l-5.6,1.6l2.4,8.1l5.6-1.6c1.1,1.6,2.7,3,4.4,4l-0.9,5.5
				l9.2,1.2l0.8-5.3c0.3-0.1,0.7-0.2,1-0.3c1.2-0.3,2.3-0.9,3.3-1.5l4.3,3.3l5.7-6.9l-4.5-3.5c0.4-1.1,0.6-2.3,0.6-3.6l5.6-1.6z M25.3,28.8c-2.8,0.8-5.8-0.8-6.7-3.6s0.8-5.8,3.6-6.7c2.8-0.8,5.8,0.8,6.7,3.6c0.8,2.8-0.8,5.8-3.6,6.7z"/>
			<path style="&st3;" d="M42.8,22.9l-2.4-8.1l-5.6,1.6c-1.1-1.6-2.7-3-4.4-4l0.9-5.5l-9.2-1.2l-0.8,5.3c-0.3,0.1-0.7,0.2-1,0.3c-1.2,0.3-2.3,0.9-3.3,1.5l-4.3-3.3L7,16.4l4.5,3.5c-0.4,1.1-0.6,2.3-0.6,3.6l-5.6,1.6l2.4,8.1l5.6-1.6c1.1,1.6,2.7,3,4.4,4l-0.9,5.5
				l9.2,1.2l0.8-5.3c0.3-0.1,0.7-0.2,1-0.3c1.2-0.3,2.3-0.9,3.3-1.5l4.3,3.3l5.7-6.9l-4.5-3.5c0.4-1.1,0.6-2.3,0.6-3.6l5.6-1.6z M25.3,28.8c-2.8,0.8-5.8-0.8-6.7-3.6s0.8-5.8,3.6-6.7c2.8-0.8,5.8,0.8,6.7,3.6c0.8,2.8-0.8,5.8-3.6,6.7z"/>
		</g>
	</g>
	<g id="crop_x0020_marks" style="&st2;">
		<path style="&st1;" d="M48,48H0V0h48v48z"/>
	</g>
</svg>
